<svg width="20" height="20" viewBox="0 0 20 20" fill="none" xmlns="http://www.w3.org/2000/svg">
<g clip-path="url(#clip0_992_5158)">
<path d="M4.19102 4.31649C4.06105 4.31164 3.93241 4.34397 3.82018 4.40969C3.70793 4.47542 3.61678 4.57183 3.55743 4.68759C3.49808 4.80334 3.47301 4.93363 3.48515 5.06314C3.49729 5.19265 3.54615 5.31601 3.62598 5.41871C4.48415 6.52255 4.95176 7.87061 5.19353 9.21845L5.24964 9.53126L4.97248 9.37575C3.97629 8.81677 2.86636 8.48328 1.66511 8.48327L4.19102 4.31649ZM4.19102 4.31649C8.69571 4.49005 11.5476 6.19317 13.0026 8.92871L13.0753 9.06534L13.2096 8.98844C14.7574 8.1021 16.5482 7.64993 18.3317 7.64993C18.4586 7.64993 18.583 7.68527 18.691 7.75199L18.7698 7.62439L18.691 7.75199C18.7989 7.81871 18.8862 7.91417 18.9429 8.02767L19.0771 7.96059L18.9429 8.02767C18.9997 8.14118 19.0237 8.26824 19.0123 8.39463C19.0009 8.52102 18.9545 8.64173 18.8784 8.74325C18.8784 8.74325 18.8784 8.74326 18.8784 8.74327L18.9984 8.83327C17.6417 10.6416 17.2376 12.5249 17.3842 14.1666H18.3317M4.19102 4.31649L18.331 14.3166M18.3317 14.1666L18.3304 14.3166C18.3306 14.3166 18.3308 14.3166 18.331 14.3166M18.3317 14.1666V14.3166H18.331M18.3317 14.1666C18.543 14.1685 18.7456 14.2505 18.8987 14.3962C19.0518 14.5418 19.1438 14.7401 19.1562 14.951C19.1686 15.1619 19.1004 15.3697 18.9654 15.5322C18.8305 15.6948 18.6388 15.8 18.4292 15.8266M18.331 14.3166C18.504 14.3183 18.6699 14.3856 18.7953 14.5048C18.9208 14.6243 18.9963 14.7869 19.0064 14.9598C19.0166 15.1328 18.9607 15.3031 18.85 15.4364C18.7413 15.5674 18.5876 15.653 18.4192 15.6766M18.4292 15.8266L18.4292 15.6766L18.4192 15.6766M18.4292 15.8266L1.66505 15.8333L18.4192 15.6766M18.4292 15.8266L18.4103 15.6778C18.4133 15.6774 18.4163 15.677 18.4192 15.6766M1.5773 14.3224L2.53596 14.3166L2.68607 14.3157L2.68505 14.1656C2.67404 12.5509 2.1957 10.8697 1.14031 9.60393C1.05721 9.50417 1.00425 9.38279 0.987645 9.25401C0.971036 9.12523 0.99146 8.99439 1.04653 8.8768C1.10159 8.75921 1.18902 8.65975 1.29857 8.59005C1.40811 8.52037 1.53523 8.48333 1.66505 8.48327L1.5773 14.3224ZM3.40832 10.1584L3.0575 10.0227L3.21869 10.3625C3.7774 11.5405 4.04599 12.8626 4.05255 14.1682L4.05331 14.3176L4.20269 14.3174L5.11686 14.3166L5.24825 14.3165L5.26543 14.1862C5.3856 13.2753 5.43604 12.3541 5.4125 11.4353L5.41075 11.3669L5.35803 11.3234C4.7613 10.8309 4.13924 10.441 3.40832 10.1584ZM5.76357 5.82641L5.4839 5.78683L5.60774 6.0407C5.98446 6.81298 6.24205 7.63445 6.4379 8.47714C6.84666 10.3402 6.86459 12.3076 6.64775 14.1499L6.62803 14.3174H6.79672H12.5784H12.72L12.7281 14.1761C12.8 12.9348 12.6439 11.5519 12.1131 10.2508C11.0178 7.56464 8.49816 6.21346 5.76357 5.82641ZM16.8703 9.37324L17.006 9.09961L16.7065 9.15951L16.6995 9.1609C15.6536 9.34977 14.6117 9.72498 13.7026 10.2891L13.604 10.3504L13.6385 10.4612C14.0108 11.6567 14.1666 12.909 14.0986 14.1593L14.09 14.3174H14.2484H15.7117H15.8731L15.8613 14.1565C15.7394 12.4883 16.1285 10.8691 16.8703 9.37324Z" fill="black" fill-opacity="0.7" stroke="white" stroke-width="0.3"/>
</g>
<defs>
<clipPath id="clip0_992_5158">
<rect width="20" height="20" fill="white"/>
</clipPath>
</defs>
</svg>
