<svg width="20" height="20" viewBox="0 0 20 20" fill="none" xmlns="http://www.w3.org/2000/svg">
<path d="M10.8333 4.16667C10.8333 5.08714 8.7813 5.83333 6.24999 5.83333C3.71868 5.83333 1.66666 5.08714 1.66666 4.16667M10.8333 4.16667C10.8333 3.24619 8.7813 2.5 6.24999 2.5C3.71868 2.5 1.66666 3.24619 1.66666 4.16667M10.8333 4.16667V5.41667M1.66666 4.16667V14.1667C1.66666 15.0871 3.71868 15.8333 6.24999 15.8333M6.24999 9.16667C6.10954 9.16667 5.97056 9.16437 5.83332 9.15987C3.49728 9.08332 1.66666 8.3694 1.66666 7.5M6.24999 12.5C3.71868 12.5 1.66666 11.7538 1.66666 10.8333M18.3333 9.58333C18.3333 10.5038 16.2813 11.25 13.75 11.25C11.2187 11.25 9.16666 10.5038 9.16666 9.58333M18.3333 9.58333C18.3333 8.66286 16.2813 7.91667 13.75 7.91667C11.2187 7.91667 9.16666 8.66286 9.16666 9.58333M18.3333 9.58333V15.8333C18.3333 16.7538 16.2813 17.5 13.75 17.5C11.2187 17.5 9.16666 16.7538 9.16666 15.8333V9.58333M18.3333 12.7083C18.3333 13.6288 16.2813 14.375 13.75 14.375C11.2187 14.375 9.16666 13.6288 9.16666 12.7083" stroke="black" stroke-linecap="round" stroke-linejoin="round"/>
</svg>
