<svg width="20" height="20" viewBox="0 0 20 20" fill="none" xmlns="http://www.w3.org/2000/svg">
<path d="M10.8346 4.16667C10.8346 5.08714 8.78261 5.83333 6.2513 5.83333C3.72 5.83333 1.66797 5.08714 1.66797 4.16667M10.8346 4.16667C10.8346 3.24619 8.78261 2.5 6.2513 2.5C3.72 2.5 1.66797 3.24619 1.66797 4.16667M10.8346 4.16667V5.41667M1.66797 4.16667V14.1667C1.66797 15.0871 3.72 15.8333 6.2513 15.8333M6.2513 9.16667C6.11085 9.16667 5.97187 9.16437 5.83463 9.15987C3.49859 9.08332 1.66797 8.3694 1.66797 7.5M6.2513 12.5C3.72 12.5 1.66797 11.7538 1.66797 10.8333M18.3346 9.58333C18.3346 10.5038 16.2826 11.25 13.7513 11.25C11.22 11.25 9.16797 10.5038 9.16797 9.58333M18.3346 9.58333C18.3346 8.66286 16.2826 7.91667 13.7513 7.91667C11.22 7.91667 9.16797 8.66286 9.16797 9.58333M18.3346 9.58333V15.8333C18.3346 16.7538 16.2826 17.5 13.7513 17.5C11.22 17.5 9.16797 16.7538 9.16797 15.8333V9.58333M18.3346 12.7083C18.3346 13.6288 16.2826 14.375 13.7513 14.375C11.22 14.375 9.16797 13.6288 9.16797 12.7083" stroke="#0166D8" stroke-linecap="round" stroke-linejoin="round"/>
</svg>
