<svg width="20" height="20" viewBox="0 0 20 20" fill="none" xmlns="http://www.w3.org/2000/svg">
<path d="M7.91536 18.3333H12.082M6.66536 1.66663H13.332M9.9987 4.16663V1.66663M3.33203 9.99996H16.6654M14.1654 15.8333L15.4154 18.3333M5.83203 15.8333L4.58203 18.3333M7.08203 12.9166H7.09036M12.9154 12.9166H12.9237M7.33203 15.8333H12.6654C14.0655 15.8333 14.7656 15.8333 15.3003 15.5608C15.7707 15.3211 16.1532 14.9387 16.3929 14.4683C16.6654 13.9335 16.6654 13.2334 16.6654 11.8333V8.16663C16.6654 6.76649 16.6654 6.06643 16.3929 5.53165C16.1532 5.06124 15.7707 4.67879 15.3003 4.43911C14.7656 4.16663 14.0655 4.16663 12.6654 4.16663H7.33203C5.9319 4.16663 5.23183 4.16663 4.69705 4.43911C4.22665 4.67879 3.8442 5.06124 3.60451 5.53165C3.33203 6.06643 3.33203 6.76649 3.33203 8.16663V11.8333C3.33203 13.2334 3.33203 13.9335 3.60451 14.4683C3.8442 14.9387 4.22665 15.3211 4.69705 15.5608C5.23183 15.8333 5.9319 15.8333 7.33203 15.8333ZM7.4987 12.9166C7.4987 13.1467 7.31215 13.3333 7.08203 13.3333C6.85191 13.3333 6.66536 13.1467 6.66536 12.9166C6.66536 12.6865 6.85191 12.5 7.08203 12.5C7.31215 12.5 7.4987 12.6865 7.4987 12.9166ZM13.332 12.9166C13.332 13.1467 13.1455 13.3333 12.9154 13.3333C12.6852 13.3333 12.4987 13.1467 12.4987 12.9166C12.4987 12.6865 12.6852 12.5 12.9154 12.5C13.1455 12.5 13.332 12.6865 13.332 12.9166Z" stroke="black" stroke-opacity="0.7" stroke-width="1.25" stroke-linecap="round" stroke-linejoin="round"/>
</svg>
