<svg width="17" height="17" viewBox="0 0 17 17" fill="none" xmlns="http://www.w3.org/2000/svg">
<g clip-path="url(#clip0_818_11983)">
<path d="M10.7005 12.5332L12.7005 10.5332M12.7005 10.5332L14.7005 12.5332M12.7005 10.5332V14.5332M10.3672 2.72704C11.3445 3.12263 12.0339 4.08074 12.0339 5.19987C12.0339 6.319 11.3445 7.27711 10.3672 7.6727M8.03385 10.5332H5.36719C4.12468 10.5332 3.50342 10.5332 3.01336 10.7362C2.35996 11.0068 1.84083 11.526 1.57018 12.1794C1.36719 12.6694 1.36719 13.2907 1.36719 14.5332M9.03385 5.19987C9.03385 6.67263 7.83995 7.86654 6.36719 7.86654C4.89443 7.86654 3.70052 6.67263 3.70052 5.19987C3.70052 3.72711 4.89443 2.5332 6.36719 2.5332C7.83995 2.5332 9.03385 3.72711 9.03385 5.19987Z" stroke="black" stroke-width="1.41176" stroke-linecap="round" stroke-linejoin="round"/>
</g>
<defs>
<clipPath id="clip0_818_11983">
<rect width="16" height="16" fill="white" transform="translate(0.03125 0.533203)"/>
</clipPath>
</defs>
</svg>
