<svg width="20" height="20" viewBox="0 0 20 20" fill="none" xmlns="http://www.w3.org/2000/svg">
<path d="M8.35 6.66663C7.77083 5.88913 6.78583 4.80163 7.17 3.72996C7.425 3.01746 9.1725 1.66663 10 1.66663C10.8275 1.66663 12.575 3.01663 12.83 3.72996C13.2142 4.80163 12.2283 5.88913 11.65 6.66663M6.66667 6.66663H13.3333M6.66667 10.8333H13.3333M6.25 15H13.75M7.91667 6.66663L5.83333 18.3333M12.0833 6.66663L14.1667 18.3333M4.16667 18.3333H15.8333M15.8333 6.24996L17.5 5.83329M15.8333 8.74996L17.5 9.16663M4.16667 6.24996L2.5 5.83329M4.16667 8.74996L2.5 9.16663" stroke="black" stroke-opacity="0.7" stroke-width="1.25" stroke-linecap="round" stroke-linejoin="round"/>
</svg>
