<svg width="20" height="20" viewBox="0 0 20 20" fill="none" xmlns="http://www.w3.org/2000/svg">
<path d="M5.20963 18.2994L10.0013 10M14.168 2.78313C10.5737 0.70795 6.076 1.61469 3.53964 4.73579C3.29208 5.04042 3.1683 5.19274 3.13229 5.41097C3.10364 5.58461 3.14608 5.81471 3.23479 5.9667C3.34628 6.15773 3.5439 6.27182 3.93912 6.50001L16.0635 13.5C16.4587 13.7282 16.6563 13.8423 16.8775 13.8433C17.0535 13.8442 17.274 13.7659 17.41 13.6542C17.581 13.5139 17.651 13.3306 17.7911 12.9639C19.2258 9.20676 17.7623 4.85831 14.168 2.78313ZM14.168 2.78313C12.5737 1.86265 9.41574 4.34757 7.11455 8.33334M14.168 2.78313C15.7623 3.7036 15.1892 7.6809 12.8881 11.6667M18.3346 18.3333H1.66797" stroke="black" stroke-opacity="0.7" stroke-width="1.25" stroke-linecap="round" stroke-linejoin="round"/>
</svg>
