<svg width="17" height="17" viewBox="0 0 17 17" fill="none" xmlns="http://www.w3.org/2000/svg">
<path d="M11.2005 12.5332H15.2005M10.8672 2.72704C11.8445 3.12263 12.5339 4.08074 12.5339 5.19987C12.5339 6.319 11.8445 7.27711 10.8672 7.6727M8.53385 10.5332H5.86719C4.62468 10.5332 4.00342 10.5332 3.51336 10.7362C2.85996 11.0068 2.34083 11.526 2.07018 12.1794C1.86719 12.6694 1.86719 13.2907 1.86719 14.5332M9.53385 5.19987C9.53385 6.67263 8.33995 7.86654 6.86719 7.86654C5.39443 7.86654 4.20052 6.67263 4.20052 5.19987C4.20052 3.72711 5.39443 2.5332 6.86719 2.5332C8.33995 2.5332 9.53385 3.72711 9.53385 5.19987Z" stroke="black" stroke-width="1.41176" stroke-linecap="round" stroke-linejoin="round"/>
</svg>
