<svg width="128" height="35" viewBox="0 0 128 35" fill="none" xmlns="http://www.w3.org/2000/svg">
<path d="M127.598 0H118.771H17.3853C7.72968 0 -0.0977783 7.83501 -0.0977783 17.5C-0.0977783 27.165 7.72968 35 17.3853 35H110.115C119.771 35 127.598 27.165 127.598 17.5V0Z" fill="#0B0B0A"/>
<path d="M28.7588 17.5005C28.7588 11.4327 23.8446 6.51376 17.7827 6.51376C11.7207 6.51376 6.80658 11.4327 6.80658 17.5005C6.80658 23.5683 11.7207 28.4872 17.7827 28.4872H28.7588L25.5439 25.2693C27.5303 23.2811 28.7588 20.5344 28.7588 17.5005ZM12.1434 18.8299C11.4099 18.8299 10.8153 18.2347 10.8153 17.5005C10.8153 16.7663 11.4099 16.1711 12.1434 16.1711C12.8768 16.1711 13.4715 16.7663 13.4715 17.5005C13.4715 18.2347 12.8768 18.8299 12.1434 18.8299ZM17.2503 19.1492C16.3405 19.1492 15.6031 18.411 15.6031 17.5005C15.6031 16.5899 16.3405 15.8518 17.2503 15.8518C18.16 15.8518 18.8973 16.5899 18.8973 17.5005C18.8973 18.411 18.16 19.1492 17.2503 19.1492ZM23.1395 19.517C22.0269 19.517 21.125 18.6142 21.125 17.5005C21.125 16.3868 22.0269 15.4839 23.1395 15.4839C24.2523 15.4839 25.1542 16.3867 25.1542 17.5005C25.1542 18.6142 24.2523 19.517 23.1395 19.517Z" fill="white"/>
<path d="M40.3793 12.5342H37.2718C36.453 12.5342 35.7811 11.8616 35.7811 11.042C35.7811 10.2223 36.453 9.5498 37.2718 9.5498H46.7201C47.5389 9.5498 48.2108 10.2223 48.2108 11.042C48.2108 11.8616 47.5389 12.5342 46.7201 12.5342H43.6126V22.7691C43.6126 23.6728 42.8988 24.3874 41.9959 24.3874C41.0931 24.3874 40.3793 23.6728 40.3793 22.7691V12.5342Z" fill="white"/>
<path d="M46.951 18.6918V18.6498C46.951 15.4132 49.5546 12.7861 53.061 12.7861C56.5463 12.7861 59.1288 15.3712 59.1288 18.6077V18.6498C59.1288 21.8862 56.5253 24.5133 53.019 24.5133C49.5336 24.5133 46.951 21.9283 46.951 18.6918ZM55.9794 18.6918V18.6498C55.9794 16.9895 54.7826 15.5393 53.019 15.5393C51.1923 15.5393 50.1005 16.9474 50.1005 18.6077V18.6498C50.1005 20.31 51.2973 21.7601 53.061 21.7601C54.8875 21.7601 55.9794 20.3521 55.9794 18.6918Z" fill="white"/>
<path d="M60.9149 14.4676C60.9149 13.5849 61.6288 12.8703 62.5107 12.8703C63.3924 12.8703 64.1064 13.5849 64.1064 14.4676V14.6147C64.8832 13.5639 65.954 12.7863 67.6127 12.7863C70.2372 12.7863 72.7358 14.8458 72.7358 18.6078V18.6499C72.7358 22.4118 70.2792 24.4714 67.6127 24.4714C65.912 24.4714 64.8622 23.6938 64.1064 22.7901V26.1528C64.1064 27.0354 63.3924 27.75 62.5107 27.75C61.6288 27.75 60.9149 27.0354 60.9149 26.1528V14.4676ZM69.5443 18.6499V18.6078C69.5443 16.7374 68.2846 15.4974 66.7939 15.4974C65.303 15.4974 64.0643 16.7374 64.0643 18.6078V18.6499C64.0643 20.5203 65.303 21.7603 66.7939 21.7603C68.2846 21.7603 69.5443 20.5413 69.5443 18.6499Z" fill="white"/>
<path d="M74.604 22.7062C74.2469 22.454 73.995 21.9917 73.995 21.4873C73.995 20.6466 74.6669 19.9952 75.5068 19.9952C75.9267 19.9952 76.2206 20.1423 76.4306 20.2894C77.5434 21.109 78.7612 21.6134 80.189 21.6134C81.5117 21.6134 82.3095 21.088 82.3095 20.2263V20.1843C82.3095 19.3647 81.8056 18.9443 79.3491 18.3138C76.3886 17.5572 74.478 16.7376 74.478 13.8163V13.7743C74.478 11.1052 76.6196 9.33984 79.6219 9.33984C81.4067 9.33984 82.9604 9.8022 84.2831 10.6428C84.64 10.853 84.997 11.2943 84.997 11.9249C84.997 12.7655 84.3251 13.417 83.4853 13.417C83.1704 13.417 82.9185 13.3329 82.6665 13.1858C81.5956 12.5553 80.5879 12.198 79.58 12.198C78.3412 12.198 77.6904 12.7655 77.6904 13.48V13.5221C77.6904 14.4888 78.3203 14.8041 80.8607 15.4556C83.8423 16.2332 85.5219 17.3051 85.5219 19.869V19.9111C85.5219 22.8324 83.2963 24.4716 80.126 24.4716C78.1943 24.4716 76.2416 23.8832 74.604 22.7062Z" fill="white"/>
<path d="M87.8114 11.0831C87.8114 10.1794 88.5253 9.46485 89.4281 9.46485H89.7851C90.4779 9.46485 90.9608 9.82218 91.2547 10.3055L95.1601 16.6735L99.0864 10.2845C99.4222 9.7381 99.8841 9.46484 100.535 9.46484H100.892C101.795 9.46484 102.509 10.1794 102.509 11.0831V22.7683C102.509 23.672 101.795 24.3866 100.892 24.3866C100.01 24.3866 99.2963 23.651 99.2963 22.7683V15.4336L96.4617 19.805C96.1259 20.3093 95.7059 20.6246 95.118 20.6246C94.5302 20.6246 94.1102 20.3093 93.7742 19.805L90.9819 15.4966V22.8103C90.9819 23.693 90.2679 24.3866 89.386 24.3866C88.5042 24.3866 87.8114 23.693 87.8114 22.8103L87.8114 11.0831Z" fill="white"/>
<path d="M105.218 22.7062C104.86 22.454 104.609 21.9917 104.609 21.4873C104.609 20.6466 105.28 19.9952 106.12 19.9952C106.54 19.9952 106.834 20.1423 107.044 20.2894C108.157 21.109 109.375 21.6134 110.803 21.6134C112.125 21.6134 112.923 21.088 112.923 20.2263V20.1843C112.923 19.3647 112.419 18.9443 109.963 18.3138C107.002 17.5572 105.091 16.7376 105.091 13.8163V13.7743C105.091 11.1052 107.233 9.33984 110.235 9.33984C112.02 9.33984 113.574 9.8022 114.897 10.6428C115.254 10.853 115.611 11.2943 115.611 11.9249C115.611 12.7655 114.939 13.417 114.099 13.417C113.784 13.417 113.532 13.3329 113.28 13.1858C112.209 12.5553 111.201 12.198 110.194 12.198C108.955 12.198 108.304 12.7655 108.304 13.48V13.5221C108.304 14.4888 108.934 14.8041 111.474 15.4556C114.456 16.2332 116.135 17.3051 116.135 19.869V19.9111C116.135 22.8324 113.91 24.4716 110.739 24.4716C108.808 24.4716 106.855 23.8832 105.218 22.7062Z" fill="white"/>
</svg>
